<svg width="5163" height="1522" viewBox="0 0 5163 1522" fill="none" xmlns="http://www.w3.org/2000/svg">
<path d="M260.037 351.908C173.032 351.908 113.4 290.324 113.4 206.257C113.4 122.19 173.032 60.6063 260.037 60.6063C347.042 60.6063 406.675 122.19 406.675 206.257C406.675 290.324 347.042 351.908 260.037 351.908ZM388.101 1279.57C388.101 1399.81 427 1454.55 530.828 1454.55V1498.54H0V1454.55C121.22 1439.89 153.481 1399.81 153.481 1279.57V726.298C153.481 618.771 118.288 580.647 9.77583 579.67V536.659L376.37 465.3L388.101 476.053V1279.57Z" fill="white"/>
<path d="M1544.96 801.567V1279.57C1544.96 1399.81 1575.27 1439.89 1688.67 1454.55V1498.54H1165.66V1454.55C1281.02 1439.89 1310.34 1399.81 1310.34 1279.57V810.365C1310.34 680.355 1246.8 617.793 1134.38 617.793C1026.84 617.793 955.481 685.242 918.333 746.826V1279.57C918.333 1399.81 947.66 1439.89 1063.02 1454.55V1498.54H530.232V1454.55C642.5 1454.55 683.713 1399.81 683.713 1279.57V726.298C683.713 618.771 648.52 580.647 540.008 579.67V536.659L894.871 465.3L906.602 476.053V677.422C947.66 585.535 1045.42 466.278 1226.27 466.278C1421.79 466.278 1544.96 579.67 1544.96 801.567Z" fill="white"/>
<path d="M2410.87 1279.57C2410.87 1399.81 2448.9 1454.5 2553 1454.5V1498.54H2022.77V1454.55C2143.99 1439.89 2176.25 1399.81 2176.25 1279.57V260.021C2176.25 152.493 2142.04 114.37 2032.55 113.392V70.3815L2399.14 0L2410.87 11.7303V1279.57Z" fill="white"/>
<path d="M2814.39 351.908C2727.38 351.908 2667.75 290.324 2667.75 206.257C2667.75 122.19 2727.38 60.6063 2814.39 60.6063C2901.39 60.6063 2961.02 122.19 2961.02 206.257C2961.02 290.324 2901.39 351.908 2814.39 351.908ZM2942.45 1279.57C2942.45 1399.81 2972.75 1439.89 3085.18 1454.55V1498.54H2553V1454.5C2665.9 1454.5 2707.83 1399.81 2707.83 1279.57V726.298C2707.83 618.771 2672.64 580.647 2564.12 579.67V536.659L2930.72 465.3L2942.45 476.053V1279.57Z" fill="white"/>
<path d="M4001.55 890.522V926.69H3327.02C3335.82 1210.17 3468.77 1338.23 3642.78 1338.23C3795.28 1338.23 3890.11 1262.96 3945.83 1146.63L3990.8 1162.27C3963.43 1313.79 3858.83 1522 3584.13 1522C3301.6 1522 3111.95 1330.41 3111.95 993.161C3111.95 656.894 3301.6 465.3 3581.19 465.3C3856.87 465.3 4001.55 648.096 4001.55 890.522ZM3328 842.623H3782.58C3779.64 665.692 3714.15 551.322 3572.4 551.322C3436.51 551.322 3341.69 647.119 3328 842.623Z" fill="white"/>
<path d="M5019.29 1278.6C5019.29 1386.12 5053.51 1422.29 5163 1426.2V1469.21L4808.14 1522L4796.41 1511.25V1310.86C4755.35 1401.77 4658.57 1521.02 4478.69 1521.02C4283.17 1521.02 4161.95 1407.63 4161.95 1186.71V715.545C4161.95 608.018 4126.76 569.895 4017.27 567.94V523.951L4384.84 477.03L4396.57 487.783V1176.94C4396.57 1306.95 4459.14 1369.51 4570.58 1369.51C4677.14 1369.51 4747.53 1302.06 4784.68 1240.47V717.5C4784.68 609.973 4750.46 571.85 4631.19 569.895V526.884L5008.54 471.165L5019.29 481.918V1278.6Z" fill="white"/>
</svg>
