<svg width="1480" height="436" viewBox="0 0 1480 436" fill="none" xmlns="http://www.w3.org/2000/svg">
<path d="M74.541 100.809C49.6006 100.809 32.5066 83.1676 32.5066 59.0854C32.5066 35.0032 49.6006 17.3616 74.541 17.3616C99.4814 17.3616 116.575 35.0032 116.575 59.0854C116.575 83.1676 99.4814 100.809 74.541 100.809ZM111.251 366.554C111.251 400.997 122.402 416.678 152.164 416.678V429.279H0V416.678C34.7484 412.478 43.996 400.997 43.996 366.554V208.059C43.996 177.256 33.9077 166.335 2.80229 166.055V153.734L107.888 133.292L111.251 136.373V366.554Z" fill="black"/>
<path d="M442.872 229.621V366.554C442.872 400.997 451.559 412.478 484.065 416.678V429.279H334.143V416.678C367.21 412.478 375.617 400.997 375.617 366.554V232.141C375.617 194.898 357.402 176.976 325.175 176.976C294.35 176.976 273.893 196.298 263.245 213.94V366.554C263.245 400.997 271.652 412.478 304.719 416.678V429.279H151.994V416.678C184.176 416.678 195.99 400.997 195.99 366.554V208.059C195.99 177.256 185.901 166.335 154.796 166.055V153.734L256.519 133.292L259.882 136.373V194.058C271.652 167.735 299.674 133.572 351.517 133.572C407.563 133.572 442.872 166.055 442.872 229.621Z" fill="black"/>
<path d="M691.089 366.554C691.089 400.997 701.989 416.664 731.83 416.664V429.279H579.838V416.678C614.586 412.478 623.834 400.997 623.834 366.554V74.4868C623.834 43.684 614.026 32.763 582.64 32.483V20.1619L687.726 0L691.089 3.36033V366.554Z" fill="black"/>
<path d="M806.758 100.809C781.818 100.809 764.724 83.1676 764.724 59.0854C764.724 35.0032 781.818 17.3616 806.758 17.3616C831.698 17.3616 848.792 35.0032 848.792 59.0854C848.792 83.1676 831.698 100.809 806.758 100.809ZM843.468 366.554C843.468 400.997 852.155 412.478 884.382 416.678V429.279H731.83V416.664C764.193 416.664 776.213 400.997 776.213 366.554V208.059C776.213 177.256 766.125 166.335 735.019 166.055V153.734L840.105 133.292L843.468 136.373V366.554Z" fill="black"/>
<path d="M1147.07 255.103V265.464H953.708C956.23 346.672 994.341 383.355 1044.22 383.355C1087.94 383.355 1115.12 361.793 1131.09 328.47L1143.98 332.951C1136.14 376.355 1106.15 436 1027.41 436C946.422 436 892.057 381.115 892.057 284.506C892.057 188.177 946.422 133.292 1026.57 133.292C1105.59 133.292 1147.07 185.657 1147.07 255.103ZM953.988 241.382H1084.29C1083.45 190.697 1064.68 157.934 1024.05 157.934C985.093 157.934 957.911 185.377 953.988 241.382Z" fill="black"/>
<path d="M1438.81 366.274C1438.81 397.076 1448.61 407.437 1480 408.557V420.879L1378.28 436L1374.91 432.92V375.514C1363.14 401.557 1335.4 435.72 1283.84 435.72C1227.79 435.72 1193.05 403.237 1193.05 339.951V204.979C1193.05 174.176 1182.96 163.255 1151.57 162.695V150.094L1256.94 136.653L1260.3 139.733V337.151C1260.3 374.394 1278.23 392.316 1310.18 392.316C1340.73 392.316 1360.9 372.994 1371.55 355.353V205.539C1371.55 174.736 1361.74 163.815 1327.56 163.255V150.934L1435.72 134.972L1438.81 138.053V366.274Z" fill="black"/>
</svg>
